# xmcd CD database file
#
# Track frame offsets:
#	150
#	18843
#	37890
#
# Disc length: 752 seconds
#
# Revision: 0
# Processed by: cddbd v1.5.1PL2 Copyright (c) Steve Scherf et al.
# Submitted via: CDex 1.51
#
DISCID=1402ee03
DTITLE=Kagrra - 誓ノ月
DYEAR=2006
DGENRE=JPop
TTITLE0=誓ノ月
TTITLE1=びくに
TTITLE2=誓ノ月(一志 less)
EXTD=YEAR: 2006
EXTT0=
EXTT1=
EXTT2=
PLAYORDER=
